<svg width="16" height="16" viewBox="0 0 16 16" fill="none" xmlns="http://www.w3.org/2000/svg">
<g clip-path="url(#clip0_1_782)">
<path d="M15.9694 3.04573C15.3793 3.30507 14.7494 3.48173 14.0859 3.56241C14.7619 3.15507 15.2819 2.51307 15.528 1.74707C14.8939 2.11707 14.1913 2.38641 13.4433 2.53641C12.8461 1.89707 11.9946 1.49707 11.0493 1.49707C9.238 1.49707 7.76934 2.96573 7.76934 4.77507C7.76934 5.03507 7.79934 5.28507 7.854 5.5244C5.12734 5.39573 2.71066 4.08641 1.09333 2.10707C0.808666 2.58841 0.649334 3.14773 0.649334 3.75707C0.649334 4.89707 1.22934 5.89907 2.108 6.48773C1.57 6.47041 1.064 6.32241 0.622666 6.07707V6.11773C0.622666 7.70773 1.75134 9.03373 3.25334 9.33573C2.978 9.40973 2.68734 9.44973 2.38934 9.44973C2.18 9.44973 1.97934 9.42973 1.77866 9.3924C2.19934 10.6944 3.40866 11.6437 4.848 11.6704C3.728 12.5497 2.30866 13.0737 0.78 13.0737C0.52 13.0737 0.260666 13.0584 0 13.0291C1.45934 13.9584 3.17866 14.5017 5.038 14.5017C11.074 14.5017 14.3706 9.5044 14.3706 5.17773C14.3706 5.03841 14.3706 4.89773 14.3607 4.75773C15.0014 4.2984 15.5607 3.71773 16.0007 3.05907L15.9694 3.04573Z" fill="white"/>
</g>
<defs>
<clipPath id="clip0_1_782">
<rect width="16" height="16" fill="white"/>
</clipPath>
</defs>
</svg>
